<?xml version="1.0" encoding="utf-8"?>
<!-- Generator: Adobe Illustrator 24.1.2, SVG Export Plug-In . SVG Version: 6.00 Build 0)  -->
<svg version="1.1" id="Layer_1" xmlns="http://www.w3.org/2000/svg" xmlns:xlink="http://www.w3.org/1999/xlink" x="0px" y="0px"
	 viewBox="0 0 64 64" style="enable-background:new 0 0 64 64;" xml:space="preserve">
<style type="text/css">
	.st0{fill:#3F4049;stroke:#FC5F45;stroke-width:2;stroke-miterlimit:10;}
	.st1{fill:#FC5F45;}
</style>
<rect y="0" class="st0" width="64" height="64"/>
<g>
	<path class="st1" d="M59.63,40.63l0.42-0.48c0.44,0.2,0.89,0.51,1.35,0.93c0.46,0.42,0.79,0.83,0.99,1.23
		c-2.16,2.52-3.89,4.46-5.19,5.82c-1.3,1.36-2.84,2.65-4.62,3.87c-1.78,1.22-3.39,1.83-4.83,1.83c-1.44,0-2.5-0.43-3.18-1.29
		c-0.68-0.86-1.01-1.94-0.99-3.24s0.31-2.75,0.87-4.35l2.22-6.36h-8.4c-3.6,4.8-7.12,8.54-10.56,11.22
		c-3.44,2.68-7.14,4.02-11.1,4.02c-2.56,0-4.88-0.48-6.96-1.44s-3.75-2.28-5.01-3.96s-2.16-3.58-2.7-5.7
		c-0.54-2.12-0.58-4.45-0.12-6.99c0.46-2.54,1.41-5.05,2.85-7.53c2.2-3.8,5.17-6.49,8.91-8.07c3.74-1.58,7.37-1.78,10.89-0.6
		c3.52,1.18,6.06,3.59,7.62,7.23l-4.98,1.92c-0.96-2.36-2.5-3.92-4.62-4.68c-2.12-0.76-4.41-0.54-6.87,0.66
		c-2.46,1.2-4.55,3.28-6.27,6.24c-1.2,2.08-1.95,4.17-2.25,6.27c-0.3,2.1-0.16,3.98,0.42,5.64c0.58,1.66,1.66,3.01,3.24,4.05
		s3.53,1.56,5.85,1.56c2.16,0,4.43-0.78,6.81-2.34c2.38-1.56,4.65-3.56,6.81-6c2.16-2.44,4.36-5.11,6.6-8.01
		c2.24-2.9,4.44-5.74,6.6-8.52c2.16-2.78,4.26-5.26,6.3-7.44c2.04-2.18,4.13-3.8,6.27-4.86c2.14-1.06,4.13-1.29,5.97-0.69l-12.36,36
		c-0.28,0.84-0.45,1.48-0.51,1.92c-0.06,0.44-0.04,0.74,0.06,0.9c0.1,0.16,0.31,0.24,0.63,0.24c0.56,0,1.78-0.86,3.66-2.58
		C55.33,45.33,57.39,43.19,59.63,40.63z M53.93,17.89c-1.04,1.08-2.18,2.39-3.42,3.93c-1.24,1.54-2.3,2.92-3.18,4.14
		c-0.88,1.22-2.05,2.86-3.51,4.92c-1.46,2.06-2.57,3.63-3.33,4.71h7.2L53.93,17.89z"/>
</g>
</svg>
