<?xml version="1.0" encoding="utf-8"?>
<!-- Generator: Adobe Illustrator 24.1.2, SVG Export Plug-In . SVG Version: 6.00 Build 0)  -->
<svg version="1.1" id="Layer_1" xmlns="http://www.w3.org/2000/svg" xmlns:xlink="http://www.w3.org/1999/xlink" x="0px" y="0px"
	 viewBox="0 0 18 18" style="enable-background:new 0 0 18 18;" xml:space="preserve">
<style type="text/css">
	.st0{fill:#616161;}
</style>
<path class="st0" d="M15.91,2.24c0.55,0.55,0.82,1.21,0.82,1.99v9.38c0,0.78-0.27,1.45-0.82,1.99c-0.55,0.55-1.21,0.82-1.99,0.82
	H4.54c-0.78,0-1.45-0.27-1.99-0.82C2,15.05,1.73,14.39,1.73,13.61V4.23c0-0.78,0.27-1.44,0.82-1.99c0.55-0.55,1.21-0.82,1.99-0.82
	h9.38C14.69,1.42,15.36,1.69,15.91,2.24z M13.88,6.28c-0.27,0.12-0.63,0.21-1.05,0.29c0.41-0.25,0.67-0.6,0.79-1.03
	c-0.35,0.22-0.74,0.36-1.17,0.44C12.1,5.6,11.65,5.4,11.1,5.4c-0.51,0-0.94,0.19-1.3,0.56c-0.36,0.37-0.54,0.8-0.54,1.29
	c0,0.1,0.02,0.24,0.06,0.44c-1.56-0.1-2.83-0.74-3.81-1.93C5.33,6.07,5.24,6.38,5.24,6.69c0,0.64,0.28,1.15,0.85,1.52
	c-0.31,0-0.6-0.08-0.85-0.23v0.03c0,0.43,0.14,0.82,0.42,1.16c0.28,0.34,0.64,0.56,1.07,0.66c-0.23,0.04-0.4,0.06-0.5,0.06
	c-0.16,0-0.27-0.01-0.35-0.03c0.27,0.82,0.85,1.25,1.73,1.29c-0.68,0.53-1.45,0.79-2.29,0.79c-0.06,0-0.14,0-0.23-0.01
	c-0.1-0.01-0.17-0.01-0.2-0.01c0.86,0.55,1.8,0.82,2.81,0.82c1.6,0,2.88-0.54,3.84-1.63c0.96-1.08,1.44-2.29,1.44-3.62
	c0-0.04-0.01-0.08-0.01-0.13c-0.01-0.05-0.01-0.08-0.01-0.1C13.3,7.02,13.61,6.69,13.88,6.28L13.88,6.28z"/>
</svg>
