<?xml version="1.0" encoding="utf-8"?>
<!-- Generator: Adobe Illustrator 24.1.2, SVG Export Plug-In . SVG Version: 6.00 Build 0)  -->
<svg version="1.1" id="Layer_1" xmlns="http://www.w3.org/2000/svg" xmlns:xlink="http://www.w3.org/1999/xlink" x="0px" y="0px"
	 viewBox="0 0 18 18" style="enable-background:new 0 0 18 18;" xml:space="preserve">
<style type="text/css">
	.st0{fill:#616161;}
</style>
<path class="st0" d="M15.91,2.24c0.55,0.55,0.82,1.21,0.82,1.99v9.37c0,0.78-0.27,1.45-0.82,1.99c-0.55,0.55-1.21,0.82-1.99,0.82
	H4.54c-0.78,0-1.45-0.27-1.99-0.82C2,15.05,1.73,14.39,1.73,13.61V4.23c0-0.78,0.27-1.45,0.82-1.99c0.55-0.55,1.21-0.82,1.99-0.82
	h9.38C14.69,1.42,15.36,1.69,15.91,2.24z M7.35,5.99H5.48v6.56h1.88V5.99z M7.35,4.7c0-0.23-0.08-0.44-0.25-0.62
	C6.94,3.91,6.73,3.82,6.47,3.82c-0.25,0-0.46,0.09-0.63,0.26C5.68,4.26,5.59,4.47,5.59,4.7c0,0.25,0.08,0.46,0.25,0.63
	C6.01,5.5,6.22,5.58,6.47,5.58c0.25,0,0.46-0.08,0.63-0.25C7.27,5.17,7.35,4.95,7.35,4.7L7.35,4.7z M13.91,8.54
	c0-0.51-0.07-0.95-0.21-1.32c-0.14-0.37-0.31-0.64-0.51-0.79c-0.21-0.16-0.4-0.27-0.59-0.34c-0.19-0.07-0.38-0.1-0.57-0.1
	c-0.72,0-1.35,0.2-1.88,0.62V5.99H8.29v6.56h1.88V8.51l0.06-0.2c0.06-0.14,0.18-0.27,0.37-0.41c0.19-0.14,0.42-0.2,0.72-0.2
	c0.49,0,0.73,0.27,0.73,0.82v4.04h1.88V8.54z"/>
</svg>
