<?xml version="1.0" encoding="utf-8"?>
<!-- Generator: Adobe Illustrator 24.1.2, SVG Export Plug-In . SVG Version: 6.00 Build 0)  -->
<svg version="1.1" id="Layer_1" xmlns="http://www.w3.org/2000/svg" xmlns:xlink="http://www.w3.org/1999/xlink" x="0px" y="0px"
	 viewBox="0 0 36 36" style="enable-background:new 0 0 36 36;" xml:space="preserve">
<style type="text/css">
	.st0{fill:#FC5F45;}
</style>
<path class="st0" d="M35.97,6.35c0,1.51-0.52,2.79-1.56,3.83c-1.04,1.04-2.29,1.56-3.75,1.56c-2.03,0-3.57-0.89-4.61-2.66
	L10.5,15.64c0.1,0.52,0.16,0.99,0.16,1.41c0,0.89-0.21,1.75-0.63,2.58l10,7.19c1.09-1.2,2.42-1.8,3.98-1.8
	c1.46,0,2.71,0.53,3.75,1.6c1.04,1.07,1.56,2.33,1.56,3.79c0,1.46-0.52,2.71-1.56,3.75c-1.04,1.04-2.29,1.56-3.75,1.56
	c-1.46,0-2.71-0.52-3.75-1.56c-1.04-1.04-1.56-2.29-1.56-3.75c0-0.99,0.18-1.82,0.55-2.5l-10-7.27c-1.04,1.15-2.34,1.72-3.91,1.72
	c-1.46,0-2.71-0.51-3.75-1.52c-1.04-1.02-1.56-2.28-1.56-3.79c0-1.51,0.52-2.77,1.56-3.79c1.04-1.02,2.29-1.52,3.75-1.52
	c2.08,0,3.62,0.89,4.61,2.66l15.63-6.56c-0.16-0.47-0.23-0.96-0.23-1.48c0-1.46,0.52-2.71,1.56-3.75c1.04-1.04,2.29-1.56,3.75-1.56
	c1.46,0,2.71,0.52,3.75,1.56C35.45,3.64,35.97,4.89,35.97,6.35L35.97,6.35z M20.03,30.41c0,1.09,0.39,2.03,1.17,2.81
	c0.78,0.78,1.72,1.17,2.81,1.17c1.09,0,2.03-0.39,2.81-1.17C27.61,32.44,28,31.5,28,30.41c0-1.14-0.39-2.11-1.17-2.89
	c-0.78-0.78-1.72-1.17-2.81-1.17c-1.09,0-2.03,0.39-2.81,1.17C20.42,28.3,20.03,29.26,20.03,30.41L20.03,30.41z M9.33,17.05
	c0-1.09-0.39-2.03-1.17-2.81c-0.78-0.78-1.72-1.17-2.81-1.17c-1.09,0-2.03,0.39-2.81,1.17c-0.78,0.78-1.17,1.72-1.17,2.81
	c0,1.09,0.39,2.03,1.17,2.81c0.78,0.78,1.72,1.17,2.81,1.17c1.09,0,2.03-0.39,2.81-1.17C8.94,19.08,9.33,18.14,9.33,17.05z
	 M34.64,6.35c0-1.09-0.39-2.03-1.17-2.81c-0.78-0.78-1.72-1.17-2.81-1.17c-1.09,0-2.03,0.39-2.81,1.17
	c-0.78,0.78-1.17,1.72-1.17,2.81c0,1.15,0.39,2.11,1.17,2.89c0.78,0.78,1.72,1.17,2.81,1.17c1.09,0,2.03-0.39,2.81-1.17
	C34.25,8.46,34.64,7.49,34.64,6.35L34.64,6.35z"/>
</svg>
