<?xml version="1.0" encoding="utf-8"?>
<!-- Generator: Adobe Illustrator 24.1.2, SVG Export Plug-In . SVG Version: 6.00 Build 0)  -->
<svg version="1.1" id="Layer_1" xmlns="http://www.w3.org/2000/svg" xmlns:xlink="http://www.w3.org/1999/xlink" x="0px" y="0px"
	 viewBox="0 0 18 18" style="enable-background:new 0 0 18 18;" xml:space="preserve">
<style type="text/css">
	.st0{fill:#616161;}
</style>
<path class="st0" d="M15.91,2.24c0.55,0.55,0.82,1.21,0.82,1.99v9.37c0,0.78-0.27,1.45-0.82,1.99c-0.55,0.55-1.21,0.82-1.99,0.82
	H4.54c-0.78,0-1.45-0.27-1.99-0.82C2,15.05,1.73,14.39,1.73,13.61V4.23c0-0.78,0.27-1.45,0.82-1.99c0.55-0.55,1.21-0.82,1.99-0.82
	h9.38C14.69,1.42,15.36,1.69,15.91,2.24z M13.91,4.58c0-0.23-0.12-0.35-0.35-0.35H4.89c-0.23,0-0.35,0.12-0.35,0.35v8.67
	c0,0.23,0.12,0.35,0.35,0.35h8.67c0.23,0,0.35-0.12,0.35-0.35V4.58z M11.1,7.05h1.88V5.17H11.1V7.05z M9.23,7.05
	c0.51,0,0.95,0.19,1.32,0.56c0.37,0.37,0.56,0.81,0.56,1.32c0,0.51-0.19,0.95-0.56,1.32c-0.37,0.37-0.81,0.56-1.32,0.56
	c-0.51,0-0.95-0.18-1.32-0.56C7.54,9.87,7.35,9.43,7.35,8.92c0-0.51,0.19-0.95,0.56-1.32C8.28,7.23,8.72,7.05,9.23,7.05z
	 M11.95,8.45h1.03v4.22h-7.5V8.45H6.5C6.46,8.69,6.44,8.84,6.44,8.92c0,0.78,0.27,1.44,0.82,1.98c0.55,0.54,1.2,0.81,1.96,0.81
	c0.76,0,1.42-0.27,1.96-0.81c0.55-0.54,0.82-1.2,0.82-1.98C12.01,8.84,11.99,8.69,11.95,8.45L11.95,8.45z"/>
</svg>
