<?xml version="1.0" encoding="utf-8"?>
<!-- Generator: Adobe Illustrator 24.1.2, SVG Export Plug-In . SVG Version: 6.00 Build 0)  -->
<svg version="1.1" id="Layer_1" xmlns="http://www.w3.org/2000/svg" xmlns:xlink="http://www.w3.org/1999/xlink" x="0px" y="0px"
	 viewBox="0 0 18 18" style="enable-background:new 0 0 18 18;" xml:space="preserve">
<style type="text/css">
	.st0{fill:#616161;}
</style>
<path class="st0" d="M15.91,2.24c0.55,0.55,0.82,1.21,0.82,1.99v9.37c0,0.78-0.27,1.45-0.82,1.99c-0.55,0.55-1.21,0.82-1.99,0.82
	H4.54c-0.78,0-1.45-0.27-1.99-0.82C2,15.05,1.73,14.39,1.73,13.61V4.23c0-0.78,0.27-1.45,0.82-1.99c0.55-0.55,1.21-0.82,1.99-0.82
	h9.38C14.69,1.42,15.36,1.69,15.91,2.24z M11.34,7.37H9.93V6.61c0-0.23,0.03-0.4,0.1-0.5c0.07-0.1,0.24-0.15,0.51-0.15h0.76V4.41
	h-1.23c-0.7,0-1.18,0.17-1.44,0.51C8.39,5.26,8.26,5.78,8.26,6.46v0.91H7.12v1.55h1.14v4.51h1.67V8.92h1.23L11.34,7.37z"/>
</svg>
